# xmcd CD database file
#
# Track frame offsets:
#	150
#	20528
#	45249
#	59700
#	74920
#	94428
#	106763
#	128819
#	144833
#	171982
#	185358
#	206322
#	219200
#
# Disc length: 3400 seconds
#
# Revision: 0
# Processed by: cddbd v1.5.2PL0 Copyright (c) Steve Scherf et al.
# Submitted via: CDex 1.70beta2
#
DISCID=bb0d460d
DTITLE=Cafe Salsa - Cafe Salsa
DYEAR=2009
DGENRE=Salsa
TTITLE0=Compay Segundo - Chan Chan
TTITLE1=Ritmo Alegria - Asi Se Compone Un Son
TTITLE2=Celia Cruz - Guede Zaina
TTITLE3=Grupo Sierra Meastra - Bururu Barara
TTITLE4=Ritmo Alegria - Marchando Bien
TTITLE5=Babalu Miguelito Valdes Con Sonora Matancera - Se Formo El Rumbon
TTITLE6=Omara Portuondo Y Adalberto Alvarez Y Su Son - Agua Que Cae Del Cielo
TTITLE7=Trio Matamoros - Son De La Loma
TTITLE8=Charlie Palmieri - Swing Y Song
TTITLE9=Orquesta Riverside - Anda Machetereo
TTITLE10=Ritmo Alegria - El Muneco
TTITLE11=Conjunto Sensacion - Salsa
TTITLE12=Joe Quijano and His Conjunto Cachana - El Rompecabeza
EXTD=YEAR: 2009
EXTT0=
EXTT1=
EXTT2=
EXTT3=
EXTT4=
EXTT5=
EXTT6=
EXTT7=
EXTT8=
EXTT9=
EXTT10=
EXTT11=
EXTT12=
PLAYORDER=
